<svg width="14" height="15" viewBox="0 0 14 15" fill="none" xmlns="http://www.w3.org/2000/svg">
<path d="M10.6026 4.78854H9.39172C9.25063 4.78854 9.1164 4.72547 9.02302 4.6157L8.5318 4.03767C8.45868 3.9514 8.3533 3.90231 8.24306 3.90231C8.13282 3.90231 8.02744 3.9517 7.95433 4.03767L7.53308 4.53359C7.39514 4.69573 7.19722 4.78884 6.98931 4.78884H0.360989C0.172212 5.34932 0.0491219 5.94133 0 6.55535H6.25734C6.36729 6.55535 6.47267 6.50864 6.54864 6.42594L7.13125 5.79258C7.20408 5.71345 7.3046 5.66882 7.4097 5.66882H7.43369C7.54422 5.66882 7.64931 5.71821 7.72243 5.80448L8.21336 6.38251C8.30675 6.49258 8.44098 6.55535 8.58206 6.55535H13.6896C13.6405 5.94103 13.5174 5.34902 13.3286 4.78884H10.6023L10.6026 4.78854Z" fill="#E5E7EB"/>
<path d="M3.7865 10.2699C3.89646 10.2699 4.00184 10.2232 4.07781 10.1405L4.66042 9.50718C4.73324 9.42804 4.83377 9.38342 4.93887 9.38342H4.96286C5.07338 9.38342 5.17848 9.4328 5.25159 9.51878L5.74253 10.0968C5.83592 10.2069 5.97015 10.2696 6.11123 10.2696H13.0329C13.2922 9.71155 13.4821 9.1127 13.5952 8.48529H6.95144C6.81036 8.48529 6.67613 8.42222 6.58274 8.31245L6.09181 7.73442C6.0187 7.64815 5.91331 7.59906 5.80307 7.59906C5.69283 7.59906 5.58745 7.64844 5.51434 7.73442L5.09309 8.23034C4.95515 8.39247 4.75723 8.48559 4.54904 8.48559H0.0943604C0.207455 9.113 0.39766 9.71185 0.656692 10.2699H3.7865Z" fill="#E5E7EB"/>
<path d="M8.69672 2.85831C8.80667 2.85831 8.91206 2.8116 8.98803 2.7289L9.57064 2.09554C9.64346 2.0164 9.74399 1.97178 9.84909 1.97178H9.87308C9.9836 1.97178 10.0887 2.02116 10.1618 2.10744L10.6527 2.68546C10.7461 2.79554 10.8804 2.85831 11.0214 2.85831H12.3377C11.0843 1.12274 9.09055 0 6.84465 0C4.59875 0 2.60503 1.12274 1.35156 2.85831H8.69672Z" fill="#E5E7EB"/>
<path d="M6.05299 12.0389H4.2529C4.11182 12.0389 3.97759 11.9759 3.8842 11.8661L3.39327 11.2881C3.32016 11.2018 3.21477 11.1527 3.10454 11.1527C2.9943 11.1527 2.88891 11.2021 2.8158 11.2881L2.39455 11.784C2.25661 11.9461 2.0587 12.0392 1.8505 12.0392H1.82251C3.07655 13.4389 4.86236 14.3151 6.84523 14.3151C8.8281 14.3151 10.6136 13.4389 11.8679 12.0392H6.05299V12.0389Z" fill="#E5E7EB"/>
</svg>
